<?xml version="1.0" encoding="UTF-8" standalone="no"?>
<!-- Generator: Gravit.io -->

<svg
   xmlns:dc="http://purl.org/dc/elements/1.1/"
   xmlns:cc="http://creativecommons.org/ns#"
   xmlns:rdf="http://www.w3.org/1999/02/22-rdf-syntax-ns#"
   xmlns:svg="http://www.w3.org/2000/svg"
   xmlns="http://www.w3.org/2000/svg"
   xmlns:sodipodi="http://sodipodi.sourceforge.net/DTD/sodipodi-0.dtd"
   xmlns:inkscape="http://www.inkscape.org/namespaces/inkscape"
   style="isolation:isolate"
   viewBox="-424.99999999999994 37.49999999999997 365 505"
   width="365"
   height="505"
   version="1.1"
   id="svg186"
   sodipodi:docname="logo.svg"
   inkscape:version="0.92.1 r15371">
  <metadata
     id="metadata192">
    <rdf:RDF>
      <cc:Work
         rdf:about="">
        <dc:format>image/svg+xml</dc:format>
        <dc:type
           rdf:resource="http://purl.org/dc/dcmitype/StillImage" />
      </cc:Work>
    </rdf:RDF>
  </metadata>
  <defs
     id="defs190">
    <mask
       maskUnits="userSpaceOnUse"
       id="mask4727">
      <rect
         style="opacity:1;fill:#f9f9f9;stroke-width:1.06555092"
         id="rect4729"
         width="366.5593"
         height="504.71539"
         x="-425"
         y="37.5"
         ry="44.846939" />
    </mask>
  </defs>
  <sodipodi:namedview
     pagecolor="#ffffff"
     bordercolor="#666666"
     borderopacity="1"
     objecttolerance="10"
     gridtolerance="10"
     guidetolerance="10"
     inkscape:pageopacity="0"
     inkscape:pageshadow="2"
     inkscape:window-width="1596"
     inkscape:window-height="849"
     id="namedview188"
     showgrid="false"
     inkscape:zoom="0.89753554"
     inkscape:cx="124.86354"
     inkscape:cy="285.14015"
     inkscape:window-x="0"
     inkscape:window-y="24"
     inkscape:window-maximized="0"
     inkscape:current-layer="svg186" />
  <g
     id="g1026"
     mask="url(#mask4727)">
    <rect
       id="rect140"
       height="505"
       width="87"
       y="37.5"
       x="-425"
       style="fill:#90a4ae" />
    <rect
       id="rect142"
       height="505"
       width="278"
       y="37.5"
       x="-338"
       style="fill:#546e7a" />
    <line
       id="line144"
       y2="172.5"
       x2="-173"
       y1="250.5"
       x1="-173" />
    <g
       id="g148"
       style="isolation:isolate">
      <line
         style="vector-effect:non-scaling-stroke;fill:none;stroke:#ffffff;stroke-width:15;stroke-linecap:square;stroke-linejoin:miter;stroke-miterlimit:3"
         id="line146"
         stroke-miterlimit="3"
         y2="184.5"
         x2="-159"
         y1="262.5"
         x1="-159" />
    </g>
    <path
       id="path150"
       d="m -191.27822,150.26665 c 0,-10.21042 8.28957,-18.5 18.5,-18.5 10.21043,0 18.5,8.28958 18.5,18.5 0,10.21043 -8.28957,18.5 -18.5,18.5 -10.21043,0 -18.5,-8.28957 -18.5,-18.5 z"
       inkscape:connector-curvature="0"
       style="fill:none" />
    <g
       transform="translate(14,12)"
       id="g154"
       style="isolation:isolate">
      <path
         style="vector-effect:non-scaling-stroke;fill:none;stroke:#ffffff;stroke-width:15;stroke-linecap:butt;stroke-linejoin:miter;stroke-miterlimit:3"
         inkscape:connector-curvature="0"
         id="path152"
         stroke-miterlimit="3"
         d="m -191.27822,150.26665 c 0,-10.21042 8.28957,-18.5 18.5,-18.5 10.21043,0 18.5,8.28958 18.5,18.5 0,10.21043 -8.28957,18.5 -18.5,18.5 -10.21043,0 -18.5,-8.28957 -18.5,-18.5 z" />
    </g>
    <path
       id="path156"
       d="m -263.27822,333.26665 c 0,-10.21042 8.28957,-18.5 18.5,-18.5 10.21043,0 18.5,8.28958 18.5,18.5 0,10.21043 -8.28957,18.5 -18.5,18.5 -10.21043,0 -18.5,-8.28957 -18.5,-18.5 z"
       inkscape:connector-curvature="0"
       style="fill:none" />
    <g
       transform="translate(14,12)"
       id="g160"
       style="isolation:isolate">
      <path
         style="vector-effect:non-scaling-stroke;fill:none;stroke:#ffffff;stroke-width:15;stroke-linecap:butt;stroke-linejoin:miter;stroke-miterlimit:3"
         inkscape:connector-curvature="0"
         id="path158"
         stroke-miterlimit="3"
         d="m -263.27822,333.26665 c 0,-10.21042 8.28957,-18.5 18.5,-18.5 10.21043,0 18.5,8.28958 18.5,18.5 0,10.21043 -8.28957,18.5 -18.5,18.5 -10.21043,0 -18.5,-8.28957 -18.5,-18.5 z" />
    </g>
    <path
       id="path162"
       d="m -261,220.79889 c 0,-10.21043 8.28957,-18.5 18.5,-18.5 10.21043,0 18.5,8.28957 18.5,18.5 0,10.21043 -8.28957,18.5 -18.5,18.5 -10.21043,0 -18.5,-8.28957 -18.5,-18.5 z"
       inkscape:connector-curvature="0"
       style="fill:none" />
    <g
       transform="translate(14,12)"
       id="g166"
       style="isolation:isolate">
      <path
         style="vector-effect:non-scaling-stroke;fill:none;stroke:#ffffff;stroke-width:15;stroke-linecap:butt;stroke-linejoin:miter;stroke-miterlimit:3"
         inkscape:connector-curvature="0"
         id="path164"
         stroke-miterlimit="3"
         d="m -261,220.79889 c 0,-10.21043 8.28957,-18.5 18.5,-18.5 10.21043,0 18.5,8.28957 18.5,18.5 0,10.21043 -8.28957,18.5 -18.5,18.5 -10.21043,0 -18.5,-8.28957 -18.5,-18.5 z" />
    </g>
    <line
       id="line168"
       y2="433.5"
       x2="-244.5"
       y1="362.76666"
       x1="-244.5" />
    <g
       transform="translate(14,12)"
       id="g172"
       style="isolation:isolate">
      <line
         style="vector-effect:non-scaling-stroke;fill:none;stroke:#ffffff;stroke-width:15;stroke-linecap:square;stroke-linejoin:miter;stroke-miterlimit:3"
         id="line170"
         stroke-miterlimit="3"
         y2="433.5"
         x2="-244.5"
         y1="362.76666"
         x1="-244.5" />
    </g>
    <line
       id="line174"
       y2="258.5"
       x2="-175"
       y1="322.05557"
       x1="-227.12384" />
    <g
       transform="translate(14,12)"
       id="g178"
       style="isolation:isolate">
      <line
         style="vector-effect:non-scaling-stroke;fill:none;stroke:#ffffff;stroke-width:15;stroke-linecap:square;stroke-linejoin:miter;stroke-miterlimit:3"
         id="line176"
         stroke-miterlimit="3"
         y2="258.5"
         x2="-175"
         y1="322.05557"
         x1="-227.12384" />
    </g>
    <line
       id="line180"
       y2="239.29889"
       x2="-242.95778"
       y1="305.09033"
       x1="-242.95778" />
    <g
       transform="translate(14,12)"
       id="g184"
       style="isolation:isolate">
      <line
         style="vector-effect:non-scaling-stroke;fill:none;stroke:#ffffff;stroke-width:15;stroke-linecap:square;stroke-linejoin:miter;stroke-miterlimit:3"
         id="line182"
         stroke-miterlimit="3"
         y2="239.29889"
         x2="-242.95778"
         y1="305.09033"
         x1="-242.95778" />
    </g>
  </g>
</svg>
